<svg id="canvas" width="150" height="200" viewBox="0 0 150 200"><rect x="0" y="0" width="50" height="50" fill="#F0D9B5" class="square" data-row="0" data-col="0" tabindex="0" role="button" aria-label="Square at row 1, column 1"></rect><rect x="50" y="0" width="50" height="50" fill="#B58863" class="square" data-row="0" data-col="1" tabindex="0" role="button" aria-label="Square at row 1, column 2"></rect><rect x="100" y="0" width="50" height="50" fill="#F0D9B5" class="square" data-row="0" data-col="2" tabindex="0" role="button" aria-label="Square at row 1, column 3"></rect><rect x="0" y="50" width="50" height="50" fill="#B58863" class="square" data-row="1" data-col="0" tabindex="0" role="button" aria-label="Square at row 2, column 1"></rect><rect x="50" y="50" width="50" height="50" fill="#F0D9B5" class="square" data-row="1" data-col="1" tabindex="0" role="button" aria-label="Square at row 2, column 2"></rect><rect x="100" y="50" width="50" height="50" fill="#B58863" class="square" data-row="1" data-col="2" tabindex="0" role="button" aria-label="Square at row 2, column 3"></rect><rect x="0" y="100" width="50" height="50" fill="#F0D9B5" class="square" data-row="2" data-col="0" tabindex="0" role="button" aria-label="Square at row 3, column 1"></rect><rect x="50" y="100" width="50" height="50" fill="#B58863" class="square" data-row="2" data-col="1" tabindex="0" role="button" aria-label="Square at row 3, column 2"></rect><rect x="100" y="100" width="50" height="50" fill="#F0D9B5" class="square" data-row="2" data-col="2" tabindex="0" role="button" aria-label="Square at row 3, column 3"></rect><rect x="0" y="150" width="50" height="50" fill="#B58863" class="square" data-row="3" data-col="0" tabindex="0" role="button" aria-label="Square at row 4, column 1"></rect><rect x="50" y="150" width="50" height="50" fill="#F0D9B5" class="square" data-row="3" data-col="1" tabindex="0" role="button" aria-label="Square at row 4, column 2"></rect><rect x="100" y="150" width="50" height="50" fill="#B58863" class="square" data-row="3" data-col="2" tabindex="0" role="button" aria-label="Square at row 4, column 3"></rect><rect x="0" y="0" width="50" height="100" rx="8" ry="8" fill="#4CAF50" stroke="#2E7D32" stroke-width="3" class="tile"></rect><rect x="50" y="0" width="50" height="100" rx="8" ry="8" fill="#4CAF50" stroke="#2E7D32" stroke-width="3" class="tile"></rect><rect x="100" y="0" width="50" height="100" rx="8" ry="8" fill="#4CAF50" stroke="#2E7D32" stroke-width="3" class="tile"></rect><rect x="0" y="100" width="50" height="100" rx="8" ry="8" fill="#4CAF50" stroke="#2E7D32" stroke-width="3" class="tile"></rect><rect x="50" y="100" width="50" height="100" rx="8" ry="8" fill="#4CAF50" stroke="#2E7D32" stroke-width="3" class="tile"></rect></svg>